<?xml version="1.0" encoding="UTF-8"?>
<svg width="101px" height="18px" viewBox="0 0 101 18" version="1.1" xmlns="http://www.w3.org/2000/svg" xmlns:xlink="http://www.w3.org/1999/xlink">
    <!-- Generator: Sketch 50.2 (55047) - http://www.bohemiancoding.com/sketch -->
    <title>Group 12</title>
    <desc>Created with Sketch.</desc>
    <defs></defs>
    <g id="Page-1" stroke="none" stroke-width="1" fill="none" fill-rule="evenodd">
        <g id="Group-12">
            <path d="M17.1224766,10.4748183 C16.6374241,13.18962 14.2841617,15.1578957 11.5264916,15.1578957 L5.47689491,15.1578957 L4.97366481,18 L16.5001742,18 C18.3641209,18 19.9136599,16.6541452 20.2304361,14.8813826 L22.0262908,4.73684647 L18.1382328,4.73684647 L17.1224766,10.4748183 Z" id="Combined-Shape" fill="#A2BBFF"></path>
            <path d="M15.2567713,10.1445361 L17.052626,0 L5.52546529,0 L5.52522845,0 C5.46329426,0 5.40183375,0.0017171047 5.34055087,0.00467763004 C5.32030088,0.00562499815 5.30022852,0.00746052386 5.27997853,0.00876315501 C5.23912328,0.0113684173 5.19844566,0.0141513111 5.15800488,0.0180592046 C5.13426147,0.0203092038 5.1107549,0.0232697292 5.0870707,0.0259934125 C5.05053781,0.0301973585 5.01406414,0.0346381465 4.9777681,0.0399078816 C4.95289969,0.043460512 4.92826812,0.047546037 4.90351812,0.051631562 C4.86887998,0.0573749811 4.83441946,0.0634144528 4.80001816,0.0701052401 C4.77503132,0.0749605017 4.75004449,0.0799933947 4.72511687,0.0853815509 C4.69142609,0.0926052327 4.65797215,0.10042102 4.62463664,0.10859207 C4.59994586,0.114572331 4.57525507,0.120611802 4.55068271,0.127124958 C4.51728799,0.135947324 4.48424852,0.145598636 4.45126827,0.155309159 C4.42740644,0.16235521 4.4035446,0.169105208 4.37997882,0.176565731 C4.3454591,0.187519675 4.31141306,0.199420987 4.2773078,0.211322299 C4.2558736,0.218782823 4.23426177,0.225769663 4.21294598,0.233585449 C4.16309074,0.252059128 4.11370917,0.271598595 4.06474208,0.29202622 C4.04016972,0.302328848 4.01601184,0.313460423 3.99167632,0.324236735 C3.96023554,0.338210415 3.92867634,0.351947253 3.89765003,0.366749879 C3.87159741,0.379184086 3.84607768,0.392447239 3.82038032,0.40541434 C3.79486059,0.41826302 3.76928165,0.43105249 3.74411719,0.444434064 C3.71705799,0.458881428 3.69041326,0.473980107 3.66376853,0.489078786 C3.64079486,0.502045887 3.6179396,0.515012988 3.59532119,0.528453774 C3.5677883,0.544795873 3.54061068,0.561552447 3.51361069,0.578486652 C3.49276859,0.591631384 3.47210412,0.604835327 3.45155808,0.618276112 C3.42372914,0.636512949 3.39613704,0.655045837 3.368841,0.673993199 C3.3502489,0.686841879 3.33195285,0.700045822 3.3136568,0.713190555 C3.28517655,0.733736601 3.25681472,0.754341857 3.22898578,0.775598429 C3.21376868,0.787144478 3.19890684,0.799164211 3.18392658,0.811006312 C3.15378844,0.834690515 3.1237095,0.858433928 3.09428188,0.883065499 C3.08670293,0.889401023 3.07936083,0.896151021 3.07178188,0.902604966 C2.91919641,1.0323944 2.77709119,1.17408514 2.64676887,1.32625614 C2.64161755,1.3322364 2.63628861,1.33821667 2.6311965,1.34425614 C2.60170967,1.37913113 2.57305179,1.41471664 2.54486758,1.45059821 C2.5387689,1.45829557 2.53267022,1.46593373 2.52668996,1.4736903 C2.4987426,1.50980871 2.47150577,1.54646002 2.44486104,1.58364422 C2.43965051,1.59092711 2.4344992,1.59821 2.42928867,1.60549289 C2.40205184,1.64409814 2.37546632,1.68305866 2.34965054,1.72267049 C2.34651239,1.72752575 2.34343344,1.73238101 2.34029528,1.73717706 C2.1380914,2.05028222 1.98106514,2.39494658 1.87780201,2.76240699 C1.87720991,2.76430172 1.87667701,2.76619646 1.87620333,2.76809119 C1.86181518,2.81936749 1.84867044,2.87099906 1.83647308,2.92304509 C1.83582176,2.92570956 1.83522966,2.92837404 1.83457834,2.93103851 C1.82238098,2.98367665 1.81119019,3.03672926 1.80124283,3.09019635 L1.80124283,3.09025556 L1.80094678,3.09179504 C1.79324941,3.13306476 1.78525599,3.17427527 1.77892047,3.21601868 L-5.1159077e-13,13.2631535 L11.5265094,13.2631535 C13.3903969,13.2631535 14.9399359,11.9172987 15.2567713,10.1445361" id="Fill-4" fill="#1652F3"></path>
            <path d="M32.1544114,12.6855789 L35.5148351,1.5203622 L39.3088228,1.5203622 L34.3657517,16.6964554 L29.9430001,16.6964554 L25,1.5203622 L28.7939877,1.5203622 L32.1544114,12.6855789 Z M40.0674639,16.6964269 L40.0674639,5.85640102 L43.3193722,5.85640102 L43.3193722,16.6964269 L40.0674639,16.6964269 Z M41.6934323,1 C42.7557602,1 43.6446483,1.8888881 43.6446483,2.95121604 C43.6446483,4.0136151 42.7557602,4.90243209 41.6934323,4.90243209 C40.6311043,4.90243209 39.7422162,4.0136151 39.7422162,2.95121604 C39.7422162,1.8888881 40.6311043,1 41.6934323,1 Z M53.573891,1.52032665 L56.8259415,1.52032665 L56.8259415,16.6964198 L53.573891,16.6964198 L53.573891,15.6774696 C52.8584428,16.5013622 51.7961148,16.9999929 50.3436006,16.9999929 C47.5034964,16.9999929 45.162023,14.5067684 45.162023,11.2764069 C45.162023,8.0461164 47.5034964,5.55282084 50.3436006,5.55282084 C51.7961148,5.55282084 52.8584428,6.05152262 53.573891,6.87541522 L53.573891,1.52032665 Z M50.9939822,13.9213823 C52.4898742,13.9213823 53.573891,12.9024321 53.573891,11.2764069 C53.573891,9.65045276 52.4898742,8.63143144 50.9939822,8.63143144 C49.4980191,8.63143144 48.4140734,9.65045276 48.4140734,11.2764069 C48.4140734,12.9024321 49.4980191,13.9213823 50.9939822,13.9213823 Z M66.7332678,11.276414 L66.7332678,8.24118112 L74.3430033,8.24118112 L74.3430033,9.54194441 C74.3430033,14.1815847 71.1126417,17 66.8633299,17 C62.0936986,17 58.6682794,13.4877542 58.6682794,9.13006922 C58.6682794,4.72900646 62.1587652,1.21683181 66.6248234,1.21683181 C69.5299231,1.21683181 71.9797698,2.64772831 73.2589864,4.68569983 L70.3105091,6.37664944 C69.6817452,5.37938811 68.3158442,4.59894436 66.6031346,4.59894436 C64.0449146,4.59894436 62.1370052,6.48509379 62.1370052,9.15175809 C62.1370052,11.7316669 63.9582303,13.6178163 66.9066365,13.6178163 C68.9229192,13.6178163 70.2454424,12.7289282 70.7873797,11.276414 L66.7332678,11.276414 Z M79.4372849,7.78589975 C79.8709201,6.33331437 81.3234344,5.63955499 82.6892643,5.63955499 L82.6892643,9.32516949 C81.3451232,9.1083519 79.4372849,9.65043142 79.4372849,11.7967762 L79.4372849,16.6964696 L76.1853056,16.6964696 L76.1853056,5.85637257 L79.4372849,5.85637257 L79.4372849,7.78589975 Z M85.8327708,1 C86.8950988,1 87.7839869,1.8888881 87.7839869,2.95121604 C87.7839869,4.0136151 86.8950988,4.90243209 85.8327708,4.90243209 C84.7704429,4.90243209 83.8815548,4.0136151 83.8815548,2.95121604 C83.8815548,1.8888881 84.7704429,1 85.8327708,1 Z M84.2068025,16.6964269 L84.2068025,5.85640102 L87.4587107,5.85640102 L87.4587107,16.6964269 L84.2068025,16.6964269 Z M97.7132225,1.52032665 L100.965273,1.52032665 L100.965273,16.6964198 L97.7132225,16.6964198 L97.7132225,15.6774696 C96.9977742,16.5013622 95.9354463,16.9999929 94.482932,16.9999929 C91.6428279,16.9999929 89.3013544,14.5067684 89.3013544,11.2764069 C89.3013544,8.0461164 91.6428279,5.55282084 94.482932,5.55282084 C95.9354463,5.55282084 96.9977742,6.05152262 97.7132225,6.87541522 L97.7132225,1.52032665 Z M95.1333137,13.9213823 C96.6292057,13.9213823 97.7132225,12.9024321 97.7132225,11.2764069 C97.7132225,9.65045276 96.6292057,8.63143144 95.1333137,8.63143144 C93.6373505,8.63143144 92.5534048,9.65045276 92.5534048,11.2764069 C92.5534048,12.9024321 93.6373505,13.9213823 95.1333137,13.9213823 Z" id="Combined-Shape" fill="#000000"></path>
        </g>
    </g>
</svg>